<?xml version="1.0" encoding="UTF-8" standalone="no"?>
<!-- Created with Inkscape (http://www.inkscape.org/) -->

<svg
   xmlns:dc="http://purl.org/dc/elements/1.1/"
   xmlns:cc="http://creativecommons.org/ns#"
   xmlns:rdf="http://www.w3.org/1999/02/22-rdf-syntax-ns#"
   xmlns:svg="http://www.w3.org/2000/svg"
   xmlns="http://www.w3.org/2000/svg"
   xmlns:xlink="http://www.w3.org/1999/xlink"
   xmlns:sodipodi="http://sodipodi.sourceforge.net/DTD/sodipodi-0.dtd"
   xmlns:inkscape="http://www.inkscape.org/namespaces/inkscape"
   width="154"
   height="507"
   id="svg3025"
   version="1.1"
   inkscape:version="0.48.4 r9939"
   sodipodi:docname="thermometer_.svg"
   inkscape:export-filename="/home/user/workspace/QmlDemo/images/thermometer_.PNG"
   inkscape:export-xdpi="90"
   inkscape:export-ydpi="90">
  <defs
     id="defs3027">
    <linearGradient
       inkscape:collect="always"
       xlink:href="#linearGradient5696"
       id="linearGradient5721"
       x1="218"
       y1="352.36218"
       x2="218"
       y2="937.36304"
       gradientUnits="userSpaceOnUse" />
    <linearGradient
       id="linearGradient5696">
      <stop
         id="stop5704"
         offset="0"
         style="stop-color:#000000;stop-opacity:0.05882353;" />
      <stop
         style="stop-color:#000000;stop-opacity:0.40784314;"
         offset="1"
         id="stop5700" />
    </linearGradient>
  </defs>
  <sodipodi:namedview
     id="base"
     pagecolor="#ffffff"
     bordercolor="#666666"
     borderopacity="1.0"
     inkscape:pageopacity="0"
     inkscape:pageshadow="2"
     inkscape:zoom="1"
     inkscape:cx="182.5"
     inkscape:cy="320"
     inkscape:document-units="px"
     inkscape:current-layer="layer1"
     showgrid="false"
     inkscape:window-width="1535"
     inkscape:window-height="1120"
     inkscape:window-x="65"
     inkscape:window-y="24"
     inkscape:window-maximized="1"
     inkscape:showpageshadow="false"
     showborder="true" />
  <metadata
     id="metadata3030">
    <rdf:RDF>
      <cc:Work
         rdf:about="">
        <dc:format>image/svg+xml</dc:format>
        <dc:type
           rdf:resource="http://purl.org/dc/dcmitype/StillImage" />
        <dc:title></dc:title>
      </cc:Work>
    </rdf:RDF>
  </metadata>
  <g
     inkscape:label="Layer 1"
     inkscape:groupmode="layer"
     id="layer1"
     transform="translate(0,-545.36218)"
     style="opacity:1">
    <path
       inkscape:connector-curvature="0"
       style="fill:none;fill-opacity:1;stroke:#000000;stroke-width:1;stroke-linecap:butt;stroke-linejoin:miter;stroke-miterlimit:4;stroke-opacity:1;stroke-dasharray:none"
       d="m 76.78571,545.50504 c -15.08494,0 -31.83736,18.3649 -32,32 -1.16426,97.60689 0,328 0,328 l 0.5,0 c -26.26171,12.11645 -44.5,38.67966 -44.5,69.5 0,42.24976 34.25022,76.49996 76.5,76.49996 42.24978,0 76.5,-34.2502 76.5,-76.49996 0,-31.01475 -18.47103,-57.70968 -45,-69.71875 0.002,-0.68329 0.74591,-270.11021 0,-327.78125 -0.19509,-15.08368 -16.91506,-32 -32,-32 z"
       id="path2987" />
    <path
       style="fill:#ffffff;stroke:#ffffff;stroke-width:1;stroke-miterlimit:4;stroke-opacity:1;stroke-dasharray:none"
       d="M 62.9,503.72462 C 28.6596,496.05809 4.4406787,468.50934 2.223712,434.70604 0.37895469,406.57802 15.035971,378.98635 39.387953,364.74478 l 6.711281,-3.9249 -0.6173,-117.05994 C 45.14242,179.37697 45.210092,104.2 45.632317,76.7 L 46.4,26.7 48.898313,21.80772 C 54.127414,11.567921 65.864527,2.5086968 75.240557,1.4756065 85.144509,0.3843476 99.215091,9.961098 104.95512,21.7 l 2.44488,5 0.27114,167 0.27115,167 5.72885,3.19584 c 12.62258,7.0415 22.46836,16.94607 29.62727,29.80416 17.50256,31.43631 9.51108,71.93408 -18.6353,94.43657 -7.37251,5.89419 -19.82646,12.29728 -28.26311,14.53126 -8.710018,2.30637 -25.546948,2.83751 -33.5,1.05679 l 0,0 z"
       id="path3979"
       inkscape:connector-curvature="0"
       transform="translate(0,545.36218)" />
  </g>
</svg>
